<svg id="_x32_" xmlns="http://www.w3.org/2000/svg" viewBox="0 0 512 512"><style>.st0{fill:#fff}</style><path class="st0" d="M380.786 35.11l-2.896.031c-53.543.976-85.224 32.655-106.454 63.859-3.86 5.78-9.65 9.484-15.431 9.629-5.79-.146-11.58-3.85-15.44-9.629-21.231-31.204-52.911-62.883-106.456-63.859l-2.894-.031C62.084 35.11 0 86.392 0 197.735 0 309.004 95.674 387.961 154.687 428.15c38.767 26.544 87.486 46 87.486 46 4.493 1.443 11.425 2.739 13.832 2.739 2.397 0 9.328-1.296 13.822-2.739 0 0 48.72-19.456 87.487-46C416.326 387.961 512 309.004 512 197.735 512 86.402 449.896 35.11 380.786 35.11zm-41.092 367.316c-32.158 22.009-72.856 39.234-80.264 42.296l-3.425.778-3.445-.778c-7.388-3.051-47.94-20.172-80.316-42.348C78.635 338.63 31.182 269.78 31.182 197.735c0-43.925 10.948-79.248 31.64-102.16 21.873-24.209 49.269-29.284 68.393-29.284l2.324.032c32.968.591 58.028 16.074 81.095 49.994 9.557 14.29 24.707 23.068 40.542 23.483l.83.031.82-.031c15.834-.416 30.985-9.194 40.386-23.265 23.224-34.139 48.284-49.622 81.324-50.212l2.252-.032c61.689 0 100.031 50.37 100.031 131.444-.001 72.045-47.454 140.895-141.125 204.691z"/><path class="st0" d="M116.127 230.774c-1.983-8.135-3.154-15.41-3.612-21.801-.457-6.444-.197-11.975.675-16.541 1.224-6.589-3.124-12.939-9.724-14.175-6.589-1.234-12.939 3.124-14.154 9.702-1.307 7.067-1.618 14.632-1.037 22.736.56 8.052 2.012 16.603 4.233 25.818 4.172 17.174 12.618 32.333 23.514 45.512 4.275 5.146 11.933 5.904 17.09 1.629 5.178-4.286 5.894-11.944 1.65-17.122-9.016-10.916-15.481-22.755-18.635-35.758zm3.58-77.67c8.612 0 15.586-6.974 15.586-15.586 0-8.624-6.974-15.597-15.586-15.597-8.624 0-15.596 6.973-15.596 15.597 0 8.613 6.972 15.586 15.596 15.586z"/></svg>
