<svg xmlns="http://www.w3.org/2000/svg" viewBox="0 0 512 512"><path d="M398.73 227.402c62.563 0 113.27-50.793 113.27-113.359C512 51.387 461.293.683 398.73.683c-62.656 0-113.364 50.704-113.364 113.36 0 11.587 1.733 22.711 4.926 33.292l-114.914 69.397c-18.512-20.154-44.959-32.739-74.417-32.739C45.146 183.993 0 229.228 0 284.954c0 55.816 45.146 100.962 100.962 100.962 30.736 0 58.278-13.778 76.79-35.482l86.824 45.787a88.347 88.347 0 0 0-4.106 26.63c.093 48.878 39.673 88.466 88.555 88.466 48.976 0 88.556-39.588 88.556-88.466 0-48.976-39.58-88.554-88.556-88.554-26.812 0-50.886 11.942-67.122 30.825l-84.726-49.431c3.104-9.672 4.742-19.976 4.742-30.736 0-10.393-1.55-20.43-4.56-29.827l118.013-64.294c20.613 22.434 50.343 36.568 83.358 36.568zM344.282 59.687c14.045-13.956 33.11-22.524 54.448-22.524 21.251 0 40.31 8.567 54.356 22.524 13.862 13.956 22.434 33.016 22.434 54.356 0 21.25-8.572 40.399-22.434 54.354-14.046 13.956-33.105 22.525-54.356 22.525-19.059 0-36.298-6.84-49.794-18.419h-.094a63.02 63.02 0 0 1-4.56-4.106c-10.852-10.946-18.422-24.991-21.246-40.852-.824-4.382-1.189-8.942-1.189-13.502-.001-21.34 8.572-40.399 22.435-54.356zM164.343 296.532c-2.28 13.138-8.661 24.902-17.781 34.022-.731.73-1.55 1.461-2.373 2.192-11.49 10.393-26.536 16.69-43.227 16.69-17.874 0-33.928-7.205-45.6-18.881-11.676-11.765-18.881-27.725-18.881-45.6 0-17.874 7.205-33.834 18.881-45.6 11.672-11.676 27.726-18.881 45.6-18.881 16.232 0 30.825 5.932 42.225 15.782a52.906 52.906 0 0 1 3.376 3.099c9.027 9.12 15.413 20.698 17.781 33.746.73 3.83 1.095 7.748 1.095 11.854-.001 3.918-.365 7.846-1.096 11.577zm133.43 117.198c1.915-10.767 7.022-20.253 14.499-27.725.638-.641 1.367-1.372 2.098-1.915 9.21-8.39 21.251-13.314 34.654-13.314 14.504 0 27.36 5.745 36.846 15.23 9.485 9.485 15.23 22.346 15.23 36.845 0 14.411-5.745 27.272-15.23 36.748-9.486 9.486-22.342 15.238-36.846 15.238-14.406 0-27.266-5.753-36.752-15.238-9.485-9.476-15.23-22.337-15.322-36.748 0-3.1.275-6.208.823-9.121z" fill="#fff"/></svg>
